# xmcd
#
# Track frame offsets:
#	150
#	18756
#	38412
#	57018
#	76825
#	92281
#	106988
#	121844
#	134151
#	151858
#	169265
#
# Disc length: 2454 seconds
#
# Revision: 0
# Processed by: cddbd v1.5.1PL0 Copyright (c) Steve Scherf et al.
# Submitted via: dBpowerAMP V4.0
#
DISCID=7409940b
DTITLE=Josh Gracin - Josh Gracin
DYEAR=2004
DGENRE=Country
TTITLE0=I Want To Live
TTITLE1=Brass Bed
TTITLE2=Peace Of Mind
TTITLE3=Wheels
TTITLE4=Endless Helpless Hoping
TTITLE5=I Would Look Good With You
TTITLE6=No One To Share The Blame
TTITLE7=Nothing To Lose
TTITLE8=The Other Soldier
TTITLE9=The Long One
TTITLE10=Turn It Up
EXTD=
EXTT0=
EXTT1=
EXTT2=
EXTT3=
EXTT4=
EXTT5=
EXTT6=
EXTT7=
EXTT8=
EXTT9=
EXTT10=
PLAYORDER=
